<svg xmlns="http://www.w3.org/2000/svg" viewBox="0 0 1700 2400" style="enable-background:new 0 0 1700 2400" xml:space="preserve"><g id="BACKGROUND"><linearGradient id="SVGID_1_" gradientUnits="userSpaceOnUse" x1="850" y1="2400" x2="850" y2="0"><stop offset=".021" style="stop-color:#efe0b5"/><stop offset=".416" style="stop-color:#f8dd9e"/><stop offset=".749" style="stop-color:#ede6c0"/><stop offset=".976" style="stop-color:#e5edda"/></linearGradient><path style="fill:url(#SVGID_1_)" d="M0 0h1700v2400H0z"/></g><g id="OBJECTS"><path style="fill:#d1cf98" d="M1700 2400V1360.511c-10.301 1.422-20.608 2.606-31.032 1.571-15.243-1.513-30.891-5.446-45.464.438-36.728 14.828-76.33 13.014-114.195 21.017-4.137.874-9.123.022-13.198-1.454-24.365-8.824-48.855-8.767-74.308-4.831-21.031 3.252-42.629 3.476-63.994 3.806-30.221.466-60.502 4.027-90.648.797-18.633-1.997-36.851 3.499-55.275 1.056-6.553-.869-13.566-1.608-19.333-4.478-22.928-11.411-47.563-11.288-72.119-11.816-12.041-.259-23.862-2.103-35.746-3.574-20.849-2.581-39.978 4.111-59.141 10.726-39.771 13.729-80.696 22.36-122.512 26.498-24.841 2.458-48.173 10.721-72.083 16.815-8.976 2.288-18.323 3.239-26.919-.38-21.618-9.101-43.443-7.218-65.094-1.586-38.008 9.887-77.335 14.726-114.266 28.569-29.52 11.066-58.384 23.912-88.805 32.496-66.139 18.663-133.195 33.089-201.355 42.044-35.825 4.707-70.235 15.408-105.327 23.219-37.796 8.413-76.446 11.745-114.735 17.163-38.602 5.463-76.656 13.351-114.451 22.491V2400h1700z"/><path style="fill:#d6dbb2" d="M1700 2400v-874.119c-34.224-4.399-67.654-12.322-99.286-27.607-26.168-12.644-52.942-13.454-80.296-6.714-40.031 9.863-79.225 6.485-118.469-4.552-23.434-6.591-47.658-9.683-72.037-8.508-36.604 1.764-72.523-6.141-108.894-6.708-24.352-.38-46.026-13.004-69.832-14.319-23.093-1.276-41.778-10.993-61.073-22.695-27.588-16.731-58.08-19.982-90.284-12.727-23.123 5.209-46.203 11.945-70.299 12.123-13.864.102-26.416-5.741-39.63-8.319-20.106-3.922-40.266.73-60.221 3.597-28.416 4.082-56.591 10.62-85.126 12.886-29.051 2.306-56.861-7.388-85.021-14.057-28.807-6.821-58.409-10.895-88.274-11.514-20.353-.422-41.049-3.505-60.832 2.132-15.503 4.418-30.027 2.237-45.255.321-13.409-1.687-27.157-.486-40.719-1.22-15.241-.825-29.7-5.965-44.516-9.14-16.16-3.463-32.298-1.157-48.334.335-22.392 2.082-43.967.288-65.217-7.649-17.712-6.616-36.801-4.747-55.213-7.065-24.575-3.094-47.69-12.729-71.567-18.969-34.923-9.127-70.406-16.104-105.498-24.62-11.672-2.833-22.718-7.814-34.106-11.692V2400H1700z"/><path style="fill:#bac7a0" d="M1700 2400v-944.872a67.664 67.664 0 0 1-7.435-.281c-36.887-3.506-73.657.924-110.47 2.426-14.064.574-28.025-1.014-41.878-3.226-19.057-3.042-37.791-1.16-56.273 3.489-28.512 7.173-56.086 4.102-84.666-2.267-37.092-8.266-74.884-14.582-113.024-16.377-23.713-1.116-46.428 6.237-68.651 13.398-51.979 16.748-105.932 25.512-158.415 40.158-13.116 3.66-26.939 3.554-40.489 3.913-27.779.737-55.575.927-83.365 1.085-23.931.136-47.286-5.686-71.061-7.259-16.576-1.097-33.161-2.074-49.737-3.168-15.132-.998-30.249-2.253-45.39-3.079-14.206-.775-28.225 1.747-42.299 3.105-22.307 2.152-43.679-2.93-65.11-7.869-19.105-4.403-38.583-6.267-58.1-5.84-24.448.535-48.882-2.802-73.293-.143-14.308 1.559-28.345 5.065-41.457 10.738-28.497 12.33-59.249 13.991-89.121 19.12-50.19 8.617-101.211 5.995-151.916 7.488-23.579.694-45.602-6.917-68.185-11.577-33.94-7.004-68.107-5.729-102.378-3.501-25.805 1.678-51.493 5.075-77.286 6.923V2400H1700z"/><path style="fill:#b3c5a9" d="M1700 2400v-732.744c-11.446.921-22.929 1.424-34.49 1.117-32.431-.862-63.52-8.586-94.358-17.496-46.482-13.43-93.762-16.62-141.718-12.186-39.275 3.632-78.013.606-116.896-5.983-28.387-4.81-57.359-6.566-86.151-8.503-28.967-1.95-56.575-8.365-82.688-20.91-40.065-19.247-83.125-28.751-126.007-38.813-7.146-1.677-14.345.997-21.527 1.352-15.481.764-30.694-2.055-45.292-6.538-24.247-7.448-48.878-7.155-73.522-5.098-17.004 1.419-32.963-2.62-49.297-5.507-44.218-7.817-88.374-5.914-132.361 2.051-14.353 2.599-27.84 1.445-40.572-6.199-14.056-8.44-29.13-11.888-45.691-10.028-20.167 2.265-39.54-2.307-58.007-9.983-19.22-7.99-38.516-9.032-58.568-4.108-15.889 3.901-31.275-.181-44.933-7.423-29.949-15.88-60.387-16.01-91.638-6.034-16.816 5.368-32.239 1.214-47.541-5.346-34.596-14.83-71.198-19.828-108.355-20.362-17.964-.259-35.9 3.11-54.066 1.749-19.515-1.463-38.37-6.876-57.824-8.529-12.551-1.066-25.11-2.39-37.626-.413-17.56 2.774-34.216-.941-50.873-4.924V2400H1700z"/><path style="fill:#85a888" d="M1700 2400v-915.395c-36.428 13.806-74.358 22.767-112.569 30.761-14.734 3.082-30.141-1.057-44.828 3.335-16.579 4.957-32.223 12.622-49.528 15.625-17.071 2.962-34.407.648-51.379 3.696-41.376 7.431-83.474 10.493-123.94 23.505-25.884 8.323-54.09 8.114-79.774 17.595-47.559 17.556-95.907 32.079-146.046 39.862-45.885 7.123-91.902 13.419-137.912 19.708-22.196 3.034-43.511 8.101-63.766 18.273-28.431 14.279-59.75 19.431-90.584 25.68-43.554 8.827-87.135 17.569-130.856 25.519-43.471 7.905-87.436 8.971-131.353 5.098-49.911-4.402-99.191-1.3-148.318 8.067-41.418 7.897-83.232 12.981-125.363 15.484-55.594 3.303-111.182 6.714-166.91 5.881-32.447-.484-64.68-3.807-96.875-7.531V2400H1700z"/><path style="fill:#7c9d82" d="M1700 2400v-864.763c-29.343 9.376-57.81 21.053-85.317 35.641-35.617 18.889-73.491 31.458-114.778 27.86-54.736-4.77-106.441 11.312-158.91 22.215-41.871 8.701-83.96 15.426-126.817 17.055-31.903 1.213-63.815.92-95.723 3.918-52.907 4.971-102.612 19.297-151.598 39.918-46.3 19.49-93.955 36.604-143.813 45.787-6.771 1.247-13.91 2.028-20.708 1.343-32.261-3.25-63.304 2.391-93.988 11.52-44.926 13.366-90.938 18.393-137.716 18.862-72.118.723-144.237 1.075-216.337-.312-60.833-1.171-121.684-3.24-182.173-10.385-48.718-5.755-97.439-11.384-146.341-15.332-8.592-.694-17.186-1.368-25.779-2.044V2400H1700z"/><path style="fill:#6d876d" d="M1700 2400v-598.058c-19.596-2.192-39.003-6.358-58.607-8.488-20.505-2.227-41.301-2.476-61.592-5.855-85.832-14.292-172.447-9.896-258.792-11.887-33.665-.776-66.402-7.483-99.216-14.101-25.444-5.131-51.346-4.043-76.992-2.859-32.57 1.503-63.45-5.381-94.768-12.921-35.881-8.638-71.035-19.653-106.67-29.021-8.83-2.321-17.665-4.998-25.434-9.719-24.418-14.841-50.949-23.886-79.299-22.695-34.226 1.437-65.331-10.024-97.374-18.285-16.042-4.136-32.261-7.634-48.483-11.024-12.476-2.607-23.147-8.572-33.448-15.733-14.828-10.307-29.569-21.696-48.37-22.888-19.861-1.258-39.821-1.532-59.619 2.475-13.496 2.732-27.036-1.219-40.592-1.283-8.531-.04-17.082-.858-25.586-.481-16.869.747-33.04-1.695-48.783-7.91-12.495-4.932-25.654-6.369-39.1-6.234-24.902.25-49.813.375-74.712-.017-14.442-.227-28.612.862-42.307 5.439-19.859 6.636-40.459 3.616-60.7 4.951-52.127 3.438-103.915-1.052-155.444-8.625-18.063-2.655-35.381-9.321-53.967-9.708-3.392-.07-6.772-.021-10.145.083V2400h1700z"/><path style="fill:#5d7864" d="M1700 2400v-625.273c-26.487 2.999-52.92 6.691-79.719 6.316-28.834-.403-57.177-4.969-85.675-8.321-32.091-3.774-64.247-5.321-96.477-2.378-41.288 3.77-82.395 4.503-123.384-3.557-21.982-4.322-44.275-3.286-65.624 3.145-36.112 10.879-71.923 10.956-108.466 2.409-33.502-7.835-67.639-6.886-101.795-4.626-40.105 2.654-79.494-1.082-116.783-17.302-20.466-8.903-42.121-11.949-63.895-14.339-20.732-2.276-40.532-7.841-59.705-15.506-26.716-10.68-54.383-16.541-83.01-17.458-30.482-.977-59.617-7.67-88.38-17.39-25.105-8.484-51.934-8.626-77.711-14.359-40.065-8.911-78.076-23.546-116.317-37.876-19.944-7.473-42.194-6.1-62.231-14.304-37.281-15.264-74.212-31.375-112.385-44.463-36.414-12.484-74.334-18.841-111.426-28.538-19.205-5.021-35.366-17.118-54.447-22.238-11.207-3.007-22.673-5.016-34.206-4.636-19.359.639-38.255-2.573-57.275-5.11-.365-.049-.726-.079-1.089-.121V2400h1700z"/><path style="fill:#39503e" d="M1700 2400v-517.876c-36.248 2.974-72.441 6.353-108.041 15.099-23.857 5.861-48.652 6.026-73.17 6.671-34.534.908-68.714 5.187-102.945 9.314-21.753 2.622-43.591 4.788-65.453 6.203-26.557 1.719-52.495 7.121-78.574 11.719-21.646 3.816-43.563 4.7-65.382 6.585-18.26 1.578-36.578 2.476-54.87 3.681-11.196.737-21.835-1.409-30.689-8.346-19.722-15.454-42.44-19.403-66.724-19.726-20.112-.267-40.067-3.36-58.538-11.871-32.712-15.072-67.744-21.364-102.751-27.67-15.254-2.748-30.255-8.43-45.995-6.966-53.838 5.008-103.306-13.915-153.21-28.705-24.801-7.35-50.103-10.313-75.041-15.874-29.003-6.468-53.341-23.943-80.552-34.613-27.633-10.835-52.444-26.79-77.886-41.534-34.005-19.706-71.859-27.946-109.011-38.352-47.575-13.325-94.8-27.681-141.902-42.637-32.993-10.476-68.465-12.667-101.191-25.419-27.461-10.7-56.038-15.818-85.532-14.714-7.536.282-15.034 1.933-22.544 2.711V2400H1700z"/><path style="fill:#557357" d="M1700 2400v-741.2c-15.191 1.306-30.412 2.218-45.748 1.702-35.292-1.187-70.568.037-105.625 4.446-50.276 6.323-99.406 17.479-148.145 31.711-46.272 13.511-93.805 23.172-142.286 24.972-18.508.687-37.014-3.333-55.762-2.499-25.308 1.127-49.985 6.949-75.084 9.074-42.864 3.628-82.998 16.185-121.977 33.63-19.198 8.592-39.606 4.631-59.5 3.207-17.779-1.272-34.868.804-51.546 6.65-28.955 10.15-59.085 14.232-89.4 16.905-33.244 2.932-65.318 11.038-97.159 20.334-22.009 6.426-44.788 6.038-67.266 8.407-24.223 2.553-48.4 5.545-72.615 8.181-6.741.734-13.559 1.397-20.318 1.22-43.888-1.151-87.463 3.254-131.085 6.943-29.046 2.456-58.009.953-87.023-1.31-37.113-2.894-74.337-2.656-111.528-1.635-24.108.662-48.211 1.697-72.189 4.655-33.848 4.176-67.737 7.711-101.948 6.184a8200.289 8200.289 0 0 0-43.795-1.814V2400H1700z"/><path style="fill:#708353" d="M1700 2400v-369.444c-20.304-2.38-40.467-5.954-60.681-9.039-46.032-7.025-92.095-12.666-138.859-9.407-16.452 1.146-32.858-1.624-49.24-3.227-24.804-2.428-48.473 3.256-72.056 9.782-23.065 6.383-46.366 10.354-70.524 8.599-28.268-2.055-55.933.903-82.494 11.733-21.388 8.721-43.627 5.969-65.862 4.471-15.419-1.039-30.976-1.147-46.419-.479-31.895 1.38-63.469-.946-95.066-5.144-21.212-2.818-41.911 2.707-62.559 6.863-15.321 3.084-30.737 5.676-46.38 4.825-19.4-1.055-37.76 3.91-56.335 8.102-10.056 2.269-19.064-3.876-28.782-4.455-12.982-.774-25.988-1.458-38.987-1.518-12.675-.058-24.25-3.601-35.143-9.559-17.831-9.752-36.862-14.046-57.09-13.26-29.978 1.164-57.26-11.187-85.877-16.839-26.433-5.221-52.035-14.649-78.919-17.101-20.669-1.885-41.472-2.342-62.129-4.923-48.418-6.051-96.251-14.585-143.016-28.983-29.384-9.046-59.717-13.299-90.608-11.869-13.825.64-27.63 3.246-41.459.741-4.33-.785-9.144-1.853-12.536-4.39-26.645-19.93-56.09-25.894-88.86-20.933-20.418 3.091-40.808-2.235-61.16-4.407-9.449-1.008-18.74-1.387-27.393 3.655-.519.303-1.042.551-1.566.795V2400h1700z"/><path style="fill:#1e3730" d="M1700 2400v-564.945c-37.765 6.793-76.381 9.348-113.114 21.278-23.945 7.776-47.343 17.959-72.653 20.312-24.113 2.241-48.127 6.153-72.169 7.619-42.167 2.571-80.05 17.321-117.17 35.181-47.92 23.056-99.863 33.268-150.291 48.446-69.772 21.001-139.4 42.639-209.912 60.861-55.774 14.413-112.223 26.357-165.751 47.978-33.805 13.654-68.646 21.124-104.626 25.039-16.146 1.757-31.934 6.404-46.018 14.274-33.972 18.982-70.77 27.717-108.772 33.511-15.301 2.333-30.247 7.092-45.283 11.017-23.166 6.048-46.157 5.908-69.131-.99-10.661-3.201-21.353-2.816-31.88.831-25.443 8.814-51.841 13.044-78.392 16.826-26.754 3.811-51.866 13.768-76.578 23.873-30.922 12.644-62.087 18.637-94.977 11.397-38.381-8.448-75.246-1.259-112.048 9.16-10.391 2.942-20.771 5.985-31.237 8.656V2400H1700z"/><path style="fill:#4e6947" d="M1700 2400v-420.804c-14.45 1.554-28.868 3.41-43.277 5.378-30.684 4.191-61.424 7.966-92.12 12.072-39.854 5.331-79.225 13.212-118.533 21.643-50.132 10.753-101.112 18.174-149.201 36.832-40.767 15.817-80.686 33.867-121.716 48.936-57.13 20.981-114.95 40.087-172.457 60.047-4.359 1.513-8.692 3.191-12.842 5.193-58.863 28.395-120.421 49.442-182.827 68.579-30.999 9.506-59.839 24.768-85.916 44.322-19.627 14.717-42.231 22.878-64.471 32.248-33.394 14.07-66.496 28.872-99.351 44.156-24.111 11.217-48.374 20.033-75.463 21.792-24.337 1.579-46.576 12.031-69.549 19.606H1700z"/><path style="fill:#1e322c" d="M1555.862 2400c-30.744-5.274-61.619-9.766-92.409-14.772-39.407-6.407-78.977-13.57-118.755-14.168-56.144-.844-112.14-5.348-168.289-5.154-9.945.034-20.028-.365-29.819-1.96-39.18-6.386-77.086-17.9-114.826-29.843-50.898-16.107-99.381-39.51-152.13-50.064-32.859-6.575-64.9-17.042-98.245-21.225-28.778-3.61-57.308-7.438-84.21-19.481-55.538-24.862-111.465-48.979-168.766-69.44-64-22.852-131.548-32.34-197.255-48.845-23.571-5.921-48.033-5.661-71.819-10.039-38.05-7.004-74.811-19.539-109.609-35.26-48.33-21.833-98.272-32.816-149.73-36.888V2400h1555.862z"/><linearGradient id="SVGID_00000024680271361389492910000012265679900818722986_" gradientUnits="userSpaceOnUse" x1="700.983" y1="965.333" x2="700.983" y2="677.333"><stop offset=".021" style="stop-color:#efe0b5"/><stop offset=".416" style="stop-color:#f8dd9e"/><stop offset=".749" style="stop-color:#ede6c0"/><stop offset=".976" style="stop-color:#e5edda"/></linearGradient><ellipse style="fill:url(#SVGID_00000024680271361389492910000012265679900818722986_)" cx="700.983" cy="821.333" rx="144.34" ry="144"/><path style="fill:#4d453a" d="M758.936 813.401c-3.914-1.305-8.115-1.201-12.062-2.454-2.699-.857-5.434-1.495-7.994-2.84-1.95-1.025-3.575.53-4.94 1.741-1.716 1.523-3.082.716-4.513-.307-.632-.452-1.187-1.027-1.857-1.405-.893-.504-.994-1.298-.85-2.105.154-.861.939-.966 1.695-1.077 1.831-.267 3.725-.166 5.475-.937.76-.335.984-.783.599-1.561-2.303-4.648-2.627-9.675-2.854-14.731-.072-1.604.706-3.126.296-4.797-.079-.322.506-1.209.622-1.918.037-.228.668-.602.767-.533.417.287.86.658 1.07 1.104 1.983 4.194 3.983 8.383 5.835 12.635.603 1.383.916 2.93 1.132 4.434.344 2.395 1.768 3.672 4.05 3.188 1.587-.337 2.575.557 3.609 1.413.219.182.215.632.314.958-.259.061-.522.111-.777.186-.603.178-1.458-.015-1.656.815-.159.667.562.817.974.973 2.525.957 4.409 2.938 6.767 4.144 1.372.702 2.612 1.833 4.383 1.382.524-.133 1.113-.042 1.664.019.043.005.155.685.008.868-.424.524-.99.895-1.757.805zM714.723 884.958c3.347.366 6.91-1.079 10.513-2.304 1.65-.561 3.317-.589 4.933-.076 1.507.479 3.062-.466 4.488.258a12.066 12.066 0 0 1 2.39 1.631c.437.377-.017.528-.382.647-1.016.329-2.528.244-2.792 1.371-.258 1.102 1.274 1.172 2.012 1.644 2.816 1.803 3.599 5.063 5.549 7.482 1.669 2.071 3.073 4.354 5.036 6.19.101.094.141.252.209.38-.08.038-.187.13-.235.106-.689-.343-1.582.261-1.902.1-2.477-1.245-5.436-.85-7.797-2.637-2.78-2.104-5.305-4.515-8.118-6.544-1.745-1.259-3.194-2.757-4.696-4.237-.531-.523-.863-.155-1.113.285-1.554 2.732-3.488 2.046-6.093 1.506-1.341-.278-2.588-.562-3.717-1.431-1.001-.771-1.506-1.87-2.058-2.867-.372-.671.221-1.518 1.284-1.505.631.007 1.265.001 2.489.001zM668.2 892.744c-1.291-.122-2.584-.227-3.873-.373-1.082-.122-1.928.074-2.334 1.249-.588 1.703-2.042.982-3.159.98-2.306-.005-4.154-.983-5.325-3.014-.528-.916-.493-2.007.114-2.783.542-.694 1.559-.859 2.459-.607 1.654.462 3.335.282 5.007.318.279.006.562-.193.844-.298-.107-.242-.211-.486-.32-.727-.682-1.503-1.438-2.978-2.032-4.515-.947-2.454-2.392-4.569-4.24-6.399-1.4-1.387-2.136-3.198-3.275-4.746-.059-.08-.02-.354.014-.362.265-.061.584-.185.805-.094 4.364 1.798 8.906 3.187 13.017 5.573 2.754 1.598 3.47 4.468 4.392 7.171.436 1.278.981 1.766 2.353 1.2 2.046-.844 4.792-.199 6.146 1.341.226.257.483.841-.151.848-1.517.017-2.296 1.058-3.166 2.01-1.952 2.137-4.274 3.433-7.276 3.228zM838.085 823.568c2.171.115 4.082-.542 5.963-1.321.702-.291.355-.642-.01-.872-2.375-1.491-3.06-4.018-4.141-6.366-1.069-2.322-1.096-4.857-.28-6.864.569-1.401.127-3.129 1.373-4.277.172-.158.07-.657.027-.99-.05-.392-.375-.973.029-1.11.494-.167.744.464.943.865 1.208 2.428 2.305 4.914 3.602 7.293 1.857 3.403 4.454 6.263 7.107 9.059.525.554 1.252.762 2.018.523 1.356-.423 2.613-.344 3.756.588.228.186.729.176.623.57-.06.222-.457.369-.72.518-.538.304-1.31.433-1.312 1.206-.002.817.836.814 1.346.945 3.702.954 7.154 2.441 10.317 4.589.139.095.263.211.395.318-.2.028-.401.055-.601.085-2.284.344-4.465-.735-6.615-.703-3.102.046-6.16-.329-9.241-.33-.801 0-1.535-.179-2.133-.664-2.13-1.726-3.885-.763-5.525.753-2.457 2.272-5.651 2.269-7.876-.232-.62-.697-1.098-1.809-1.078-2.718.03-1.363 1.372-.612 2.033-.865zM704.09 851.037c-.172 1.725-.162 3.329-1.644 4.409-.516.376-.413.921.186 1.074.975.25.904 1.308 1.563 1.797.277.206-.069.456-.298.538-1.475.533-2.986.978-4.43 1.582-2.238.937-4.268.232-6.303-.615-.541-.225-1.004-.196-1.516.139-1.463.959-4.506.349-5.524-1.062a1.211 1.211 0 0 1-.111-1.26c.232-.499.747-.593 1.23-.478 1.262.301 2.43.005 3.619-.388.799-.264.935-.73.583-1.364-1.902-3.433-2.831-7.165-3.288-11.009-.172-1.449-.093-2.964.546-4.363.194-.425.479-.627.958-.614.448.012.834.095.99.563 1.38 4.145 4.659 7.122 6.699 10.86.206.378.469.81.455 1.208-.069 2.093 1.092 1.654 2.148.989 1.061-.669 1.977-1.565 2.975-2.337.304-.235.528-.813.974-.558.206.115.152.68.188.889zM791.902 809.36c1.256.463 2.573-.186 3.592-.88 1.233-.839-.107-1.976-.467-2.753-2.05-4.426-3.178-9.019-3.061-13.892.018-.728.357-1.454.581-2.171.122-.39.46-.475.841-.466.433.01.846.061 1.01.534 1.513 4.382 4.815 7.658 7.166 11.522.622 1.022.97 2.108 1.131 3.269.104.75.327.994 1.178.7 1.808-.624 2.98-2.103 4.515-3.082.281-.179.562-.59.889-.312.205.174.277.618.251.928-.155 1.845-.328 3.683-2.377 4.584-.276.121-.397.597-.589.908.297.059.595.17.891.168 1.258-.009 1.751.979 1.972 1.856.184.728-.851.769-1.377 1.006-3.393 1.529-6.801 2.469-10.482.736-1.618-.761-3.203.904-5.004.416-.99-.268-1.821-.639-2.588-1.234-.4-.31-.778-.726-.574-1.296.215-.601.766-.561 1.284-.542.348.011.697.001 1.218.001zM717.741 852.82c.612-.489 2.671 1.146 2.173-1.374-.212-1.074-1.258-.891-2.02-1.031-.709-.13-1.771-.048-1.859-.77-.098-.807 1.024-.606 1.582-.763 2.158-.609 4.351-1.103 6.541-1.591 1.91-.426 2.988.236 2.971 2.337-.015 1.801.986 2.479 2.712 2.244.803-.109 1.512.033 2.005.764.409.608.538 1.048-.395 1.305-.467.129-1.56.38-.707 1.116 2.535 2.188 2.458 5.263 2.965 8.119.245 1.382.126 2.839.081 4.258-.021.665.427 1.702-.494 1.899-.821.175-1.28-.859-1.875-1.366-3.029-2.58-4.958-6.086-7.423-9.133-1.771-2.189-2.516-1.531-3.792.122-.792 1.026-1.816 1.578-2.938.296-.862-.985-1.948-1.845-2.56-2.964-1.128-2.058.119-3.469 3.033-3.468zM761.372 850.566c-.019 3.985.644 4.695 4.559 4.967.775.054 1.657.33 1.825 1.082.184.827-.814.765-1.341 1.018-.348.167-.747.281-.744.748.002.411.409.408.673.559 1.175.673 2.435.576 3.704.45.328-.033.776-.205.877.271.102.484-.342.613-.711.721-1.987.586-3.99-.513-5.934-.03-2.389.594-4.357-.771-6.523-1.162-1.224-.221-2.081-.141-2.838.825-1.329 1.696-2.876.481-4.246.164-1.125-.26-1.802-1.352-1.74-2.543.075-1.451.477-2.759 2.476-2.233a29.01 29.01 0 0 0 2.88.58c.692.108 1.133-.201.767-.918-1.807-3.539-.849-7.036.064-10.552.447-1.72 1.072-3.326 2.261-4.694.573-.659 1.264-.882 2.035-.7.738.174.476.931.459 1.378-.131 3.456 1.515 6.64 1.497 10.069zM810.939 879.563c-.343 1.869.593 3.515.864 5.277.22 1.43.466 2.863.549 4.304.124 2.131 1.635 2.551 3.228 2.464 1.135-.062 1.872.367 2.642.968.381.296.367.584-.148.72-.213.056-.439.063-.656.106-2.643.516-3.139 1.673-1.652 3.802 1.385 1.983 2.159 4.363 3.964 6.078.104.099.071.343.102.519-.179.004-.367.047-.534.006-4.246-1.039-7.978-2.913-10.617-6.547-.111-.152-.282-.3-.308-.469-.452-2.878-1.412-1.245-2.312-.27-1.726 1.871-2.42 1.724-4.71-.773-1.236-1.348-1.576-2.74-.355-4.193 1.128-1.341 2.334-.516 3.506.066.447.222.941.376 1.43.475.444.09.947.011 1.18-.413.217-.394-.26-.583-.46-.838-1.715-2.19-.492-4.416-.015-6.589.412-1.876 1.785-3.313 2.67-4.978.328-.617.767-1.541 1.354-1.405.664.152.019 1.117.278 1.69zM782.437 852.392c.229-.045.934-.098 1.576-.327 1.428-.511 2.588-1.158 1.013-2.82-.715-.754-.277-1.847-.579-2.73-1.25-3.654-1.4-7.545-2.458-11.241-.133-.466-.099-.991-.071-1.484.01-.176.2-.398.367-.487.102-.054.374.059.474.177 2.653 3.132 5.332 6.243 7.916 9.431 1.062 1.311.824 3 .906 4.57.02.38-.02.791.417.976.388.164.68-.076.925-.323.911-.92 2.394-1.064 3.094-2.28.055-.095.387-.155.483-.085.834.613 1.122 1.55 1.134 2.49.011.808-.726.905-1.404.916-.667.01-1.455.18-1.525.86-.084.816.714.072 1.088.344.556.404 1.406.65 1.506 1.321.105.704-.848.42-1.242.745-3.593 2.97-7.526 1.958-11.454.957-1.173-.299-2.163.065-3.127.718-.424.287-.9.843-1.506.255-.317-.308-.712-.623-.526-1.128.245-.664.89-.75 1.481-.844.34-.055.695-.011 1.512-.011z"/></g></svg>