<?xml version="1.0" encoding="utf-8"?>
<svg version="1.1" xmlns="http://www.w3.org/2000/svg" xmlns:xlink="http://www.w3.org/1999/xlink" x="0px" y="0px" viewBox="0 0 1700 2400" style="enable-background:new 0 0 1700 2400" xml:space="preserve">
<g id="BACKGROUND">
	<linearGradient id="SVGID_1_" gradientUnits="userSpaceOnUse" x1="850" y1="2400" x2="850" y2="-9.094947e-13">
		<stop offset="0.0209" style="stop-color:#efe0b5"></stop>
		<stop offset="0.4162" style="stop-color:#f8dd9e"></stop>
		<stop offset="0.7488" style="stop-color:#ede6c0"></stop>
		<stop offset="0.9764" style="stop-color:#e5edda"></stop>
	</linearGradient>
	<rect style="fill:url(#SVGID_1_)" width="1700" height="2400"></rect>
</g>
<g id="OBJECTS">
	<g>
		<g>
			<g>
				<path style="fill:#d1cf98" d="M1700,2400V1360.511c-10.301,1.422-20.608,2.606-31.032,1.571
					c-15.243-1.513-30.891-5.446-45.464,0.438c-36.728,14.828-76.33,13.014-114.195,21.017c-4.137,0.874-9.123,0.022-13.198-1.454
					c-24.365-8.824-48.855-8.767-74.308-4.831c-21.031,3.252-42.629,3.476-63.994,3.806c-30.221,0.466-60.502,4.027-90.648,0.797
					c-18.633-1.997-36.851,3.499-55.275,1.056c-6.553-0.869-13.566-1.608-19.333-4.478c-22.928-11.411-47.563-11.288-72.119-11.816
					c-12.041-0.259-23.862-2.103-35.746-3.574c-20.849-2.581-39.978,4.111-59.141,10.726
					c-39.771,13.729-80.696,22.36-122.512,26.498c-24.841,2.458-48.173,10.721-72.083,16.815c-8.976,2.288-18.323,3.239-26.919-0.38
					c-21.618-9.101-43.443-7.218-65.094-1.586c-38.008,9.887-77.335,14.726-114.266,28.569
					c-29.52,11.066-58.384,23.912-88.805,32.496c-66.139,18.663-133.195,33.089-201.355,42.044
					c-35.825,4.707-70.235,15.408-105.327,23.219c-37.796,8.413-76.446,11.745-114.735,17.163
					C75.849,1564.07,37.795,1571.958,0,1581.098V2400H1700z"></path>
			</g>
			<g>
				<path style="fill:#d6dbb2" d="M1700,2400v-874.119c-34.224-4.399-67.654-12.322-99.286-27.607
					c-26.168-12.644-52.942-13.454-80.296-6.714c-40.031,9.863-79.225,6.485-118.469-4.552c-23.434-6.591-47.658-9.683-72.037-8.508
					c-36.604,1.764-72.523-6.141-108.894-6.708c-24.352-0.38-46.026-13.004-69.832-14.319
					c-23.093-1.276-41.778-10.993-61.073-22.695c-27.588-16.731-58.08-19.982-90.284-12.727
					c-23.123,5.209-46.203,11.945-70.299,12.123c-13.864,0.102-26.416-5.741-39.63-8.319c-20.106-3.922-40.266,0.73-60.221,3.597
					c-28.416,4.082-56.591,10.62-85.126,12.886c-29.051,2.306-56.861-7.388-85.021-14.057
					c-28.807-6.821-58.409-10.895-88.274-11.514c-20.353-0.422-41.049-3.505-60.832,2.132c-15.503,4.418-30.027,2.237-45.255,0.321
					c-13.409-1.687-27.157-0.486-40.719-1.22c-15.241-0.825-29.7-5.965-44.516-9.14c-16.16-3.463-32.298-1.157-48.334,0.335
					c-22.392,2.082-43.967,0.288-65.217-7.649c-17.712-6.616-36.801-4.747-55.213-7.065c-24.575-3.094-47.69-12.729-71.567-18.969
					c-34.923-9.127-70.406-16.104-105.498-24.62c-11.672-2.833-22.718-7.814-34.106-11.692V2400H1700z"></path>
			</g>
			<g>
				<path style="fill:#bac7a0" d="M1700,2400v-944.872c-2.442,0.037-4.916-0.042-7.435-0.281
					c-36.887-3.506-73.657,0.924-110.47,2.426c-14.064,0.574-28.025-1.014-41.878-3.226c-19.057-3.042-37.791-1.16-56.273,3.489
					c-28.512,7.173-56.086,4.102-84.666-2.267c-37.092-8.266-74.884-14.582-113.024-16.377
					c-23.713-1.116-46.428,6.237-68.651,13.398c-51.979,16.748-105.932,25.512-158.415,40.158
					c-13.116,3.66-26.939,3.554-40.489,3.913c-27.779,0.737-55.575,0.927-83.365,1.085c-23.931,0.136-47.286-5.686-71.061-7.259
					c-16.576-1.097-33.161-2.074-49.737-3.168c-15.132-0.998-30.249-2.253-45.39-3.079c-14.206-0.775-28.225,1.747-42.299,3.105
					c-22.307,2.152-43.679-2.93-65.11-7.869c-19.105-4.403-38.583-6.267-58.1-5.84c-24.448,0.535-48.882-2.802-73.293-0.143
					c-14.308,1.559-28.345,5.065-41.457,10.738c-28.497,12.33-59.249,13.991-89.121,19.12c-50.19,8.617-101.211,5.995-151.916,7.488
					c-23.579,0.694-45.602-6.917-68.185-11.577c-33.94-7.004-68.107-5.729-102.378-3.501c-25.805,1.678-51.493,5.075-77.286,6.923
					V2400H1700z"></path>
			</g>
			<g>
				<path style="fill:#b3c5a9" d="M1700,2400v-732.744c-11.446,0.921-22.929,1.424-34.49,1.117
					c-32.431-0.862-63.52-8.586-94.358-17.496c-46.482-13.43-93.762-16.62-141.718-12.186c-39.275,3.632-78.013,0.606-116.896-5.983
					c-28.387-4.81-57.359-6.566-86.151-8.503c-28.967-1.95-56.575-8.365-82.688-20.91c-40.065-19.247-83.125-28.751-126.007-38.813
					c-7.146-1.677-14.345,0.997-21.527,1.352c-15.481,0.764-30.694-2.055-45.292-6.538c-24.247-7.448-48.878-7.155-73.522-5.098
					c-17.004,1.419-32.963-2.62-49.297-5.507c-44.218-7.817-88.374-5.914-132.361,2.051c-14.353,2.599-27.84,1.445-40.572-6.199
					c-14.056-8.44-29.13-11.888-45.691-10.028c-20.167,2.265-39.54-2.307-58.007-9.983c-19.22-7.99-38.516-9.032-58.568-4.108
					c-15.889,3.901-31.275-0.181-44.933-7.423c-29.949-15.88-60.387-16.01-91.638-6.034c-16.816,5.368-32.239,1.214-47.541-5.346
					c-34.596-14.83-71.198-19.828-108.355-20.362c-17.964-0.259-35.9,3.11-54.066,1.749c-19.515-1.463-38.37-6.876-57.824-8.529
					c-12.551-1.066-25.11-2.39-37.626-0.413c-17.56,2.774-34.216-0.941-50.873-4.924V2400H1700z"></path>
			</g>
			<g>
				<path style="fill:#85a888" d="M1700,2400v-915.395c-36.428,13.806-74.358,22.767-112.569,30.761
					c-14.734,3.082-30.141-1.057-44.828,3.335c-16.579,4.957-32.223,12.622-49.528,15.625c-17.071,2.962-34.407,0.648-51.379,3.696
					c-41.376,7.431-83.474,10.493-123.94,23.505c-25.884,8.323-54.09,8.114-79.774,17.595
					c-47.559,17.556-95.907,32.079-146.046,39.862c-45.885,7.123-91.902,13.419-137.912,19.708
					c-22.196,3.034-43.511,8.101-63.766,18.273c-28.431,14.279-59.75,19.431-90.584,25.68
					c-43.554,8.827-87.135,17.569-130.856,25.519c-43.471,7.905-87.436,8.971-131.353,5.098c-49.911-4.402-99.191-1.3-148.318,8.067
					c-41.418,7.897-83.232,12.981-125.363,15.484c-55.594,3.303-111.182,6.714-166.91,5.881c-32.447-0.484-64.68-3.807-96.875-7.531
					V2400H1700z"></path>
			</g>
			<g>
				<path style="fill:#7c9d82" d="M1700,2400v-864.763c-29.343,9.376-57.81,21.053-85.317,35.641
					c-35.617,18.889-73.491,31.458-114.778,27.86c-54.736-4.77-106.441,11.312-158.91,22.215
					c-41.871,8.701-83.96,15.426-126.817,17.055c-31.903,1.213-63.815,0.92-95.723,3.918
					c-52.907,4.971-102.612,19.297-151.598,39.918c-46.3,19.49-93.955,36.604-143.813,45.787c-6.771,1.247-13.91,2.028-20.708,1.343
					c-32.261-3.25-63.304,2.391-93.988,11.52c-44.926,13.366-90.938,18.393-137.716,18.862
					c-72.118,0.723-144.237,1.075-216.337-0.312c-60.833-1.171-121.684-3.24-182.173-10.385
					c-48.718-5.755-97.439-11.384-146.341-15.332c-8.592-0.694-17.186-1.368-25.779-2.044V2400H1700z"></path>
			</g>
			<g>
				<path style="fill:#6d876d" d="M1700,2400v-598.058c-19.596-2.192-39.003-6.358-58.607-8.488
					c-20.505-2.227-41.301-2.476-61.592-5.855c-85.832-14.292-172.447-9.896-258.792-11.887
					c-33.665-0.776-66.402-7.483-99.216-14.101c-25.444-5.131-51.346-4.043-76.992-2.859c-32.57,1.503-63.45-5.381-94.768-12.921
					c-35.881-8.638-71.035-19.653-106.67-29.021c-8.83-2.321-17.665-4.998-25.434-9.719c-24.418-14.841-50.949-23.886-79.299-22.695
					c-34.226,1.437-65.331-10.024-97.374-18.285c-16.042-4.136-32.261-7.634-48.483-11.024
					c-12.476-2.607-23.147-8.572-33.448-15.733c-14.828-10.307-29.569-21.696-48.37-22.888c-19.861-1.258-39.821-1.532-59.619,2.475
					c-13.496,2.732-27.036-1.219-40.592-1.283c-8.531-0.04-17.082-0.858-25.586-0.481c-16.869,0.747-33.04-1.695-48.783-7.91
					c-12.495-4.932-25.654-6.369-39.1-6.234c-24.902,0.25-49.813,0.375-74.712-0.017c-14.442-0.227-28.612,0.862-42.307,5.439
					c-19.859,6.636-40.459,3.616-60.7,4.951c-52.127,3.438-103.915-1.052-155.444-8.625c-18.063-2.655-35.381-9.321-53.967-9.708
					c-3.392-0.07-6.772-0.021-10.145,0.083V2400H1700z"></path>
			</g>
			<g>
				<path style="fill:#5d7864" d="M1700,2400v-625.273c-26.487,2.999-52.92,6.691-79.719,6.316
					c-28.834-0.403-57.177-4.969-85.675-8.321c-32.091-3.774-64.247-5.321-96.477-2.378c-41.288,3.77-82.395,4.503-123.384-3.557
					c-21.982-4.322-44.275-3.286-65.624,3.145c-36.112,10.879-71.923,10.956-108.466,2.409
					c-33.502-7.835-67.639-6.886-101.795-4.626c-40.105,2.654-79.494-1.082-116.783-17.302
					c-20.466-8.903-42.121-11.949-63.895-14.339c-20.732-2.276-40.532-7.841-59.705-15.506
					c-26.716-10.68-54.383-16.541-83.01-17.458c-30.482-0.977-59.617-7.67-88.38-17.39c-25.105-8.484-51.934-8.626-77.711-14.359
					c-40.065-8.911-78.076-23.546-116.317-37.876c-19.944-7.473-42.194-6.1-62.231-14.304
					c-37.281-15.264-74.212-31.375-112.385-44.463c-36.414-12.484-74.334-18.841-111.426-28.538
					c-19.205-5.021-35.366-17.118-54.447-22.238c-11.207-3.007-22.673-5.016-34.206-4.636c-19.359,0.639-38.255-2.573-57.275-5.11
					c-0.365-0.049-0.726-0.079-1.089-0.121V2400H1700z"></path>
			</g>
			<g>
				<path style="fill:#39503e" d="M1700,2400v-517.876c-36.248,2.974-72.441,6.353-108.041,15.099
					c-23.857,5.861-48.652,6.026-73.17,6.671c-34.534,0.908-68.714,5.187-102.945,9.314c-21.753,2.622-43.591,4.788-65.453,6.203
					c-26.557,1.719-52.495,7.121-78.574,11.719c-21.646,3.816-43.563,4.7-65.382,6.585c-18.26,1.578-36.578,2.476-54.87,3.681
					c-11.196,0.737-21.835-1.409-30.689-8.346c-19.722-15.454-42.44-19.403-66.724-19.726c-20.112-0.267-40.067-3.36-58.538-11.871
					c-32.712-15.072-67.744-21.364-102.751-27.67c-15.254-2.748-30.255-8.43-45.995-6.966
					c-53.838,5.008-103.306-13.915-153.21-28.705c-24.801-7.35-50.103-10.313-75.041-15.874
					c-29.003-6.468-53.341-23.943-80.552-34.613c-27.633-10.835-52.444-26.79-77.886-41.534
					c-34.005-19.706-71.859-27.946-109.011-38.352c-47.575-13.325-94.8-27.681-141.902-42.637
					c-32.993-10.476-68.465-12.667-101.191-25.419c-27.461-10.7-56.038-15.818-85.532-14.714
					c-7.536,0.282-15.034,1.933-22.544,2.711V2400H1700z"></path>
			</g>
			<g>
				<path style="fill:#557357" d="M1700,2400v-741.2c-15.191,1.306-30.412,2.218-45.748,1.702
					c-35.292-1.187-70.568,0.037-105.625,4.446c-50.276,6.323-99.406,17.479-148.145,31.711
					c-46.272,13.511-93.805,23.172-142.286,24.972c-18.508,0.687-37.014-3.333-55.762-2.499
					c-25.308,1.127-49.985,6.949-75.084,9.074c-42.864,3.628-82.998,16.185-121.977,33.63c-19.198,8.592-39.606,4.631-59.5,3.207
					c-17.779-1.272-34.868,0.804-51.546,6.65c-28.955,10.15-59.085,14.232-89.4,16.905c-33.244,2.932-65.318,11.038-97.159,20.334
					c-22.009,6.426-44.788,6.038-67.266,8.407c-24.223,2.553-48.4,5.545-72.615,8.181c-6.741,0.734-13.559,1.397-20.318,1.22
					c-43.888-1.151-87.463,3.254-131.085,6.943c-29.046,2.456-58.009,0.953-87.023-1.31c-37.113-2.894-74.337-2.656-111.528-1.635
					c-24.108,0.662-48.211,1.697-72.189,4.655c-33.848,4.176-67.737,7.711-101.948,6.184c-14.596-0.651-29.195-1.241-43.795-1.814
					V2400H1700z"></path>
			</g>
			<g>
				<path style="fill:#708353" d="M1700,2400v-369.444c-20.304-2.38-40.467-5.954-60.681-9.039
					c-46.032-7.025-92.095-12.666-138.859-9.407c-16.452,1.146-32.858-1.624-49.24-3.227c-24.804-2.428-48.473,3.256-72.056,9.782
					c-23.065,6.383-46.366,10.354-70.524,8.599c-28.268-2.055-55.933,0.903-82.494,11.733c-21.388,8.721-43.627,5.969-65.862,4.471
					c-15.419-1.039-30.976-1.147-46.419-0.479c-31.895,1.38-63.469-0.946-95.066-5.144c-21.212-2.818-41.911,2.707-62.559,6.863
					c-15.321,3.084-30.737,5.676-46.38,4.825c-19.4-1.055-37.76,3.91-56.335,8.102c-10.056,2.269-19.064-3.876-28.782-4.455
					c-12.982-0.774-25.988-1.458-38.987-1.518c-12.675-0.058-24.25-3.601-35.143-9.559c-17.831-9.752-36.862-14.046-57.09-13.26
					c-29.978,1.164-57.26-11.187-85.877-16.839c-26.433-5.221-52.035-14.649-78.919-17.101c-20.669-1.885-41.472-2.342-62.129-4.923
					c-48.418-6.051-96.251-14.585-143.016-28.983c-29.384-9.046-59.717-13.299-90.608-11.869c-13.825,0.64-27.63,3.246-41.459,0.741
					c-4.33-0.785-9.144-1.853-12.536-4.39c-26.645-19.93-56.09-25.894-88.86-20.933c-20.418,3.091-40.808-2.235-61.16-4.407
					c-9.449-1.008-18.74-1.387-27.393,3.655c-0.519,0.303-1.042,0.551-1.566,0.795V2400H1700z"></path>
			</g>
			<g>
				<path style="fill:#1e3730" d="M1700,2400v-564.945c-37.765,6.793-76.381,9.348-113.114,21.278
					c-23.945,7.776-47.343,17.959-72.653,20.312c-24.113,2.241-48.127,6.153-72.169,7.619c-42.167,2.571-80.05,17.321-117.17,35.181
					c-47.92,23.056-99.863,33.268-150.291,48.446c-69.772,21.001-139.4,42.639-209.912,60.861
					c-55.774,14.413-112.223,26.357-165.751,47.978c-33.805,13.654-68.646,21.124-104.626,25.039
					c-16.146,1.757-31.934,6.404-46.018,14.274c-33.972,18.982-70.77,27.717-108.772,33.511
					c-15.301,2.333-30.247,7.092-45.283,11.017c-23.166,6.048-46.157,5.908-69.131-0.99c-10.661-3.201-21.353-2.816-31.88,0.831
					c-25.443,8.814-51.841,13.044-78.392,16.826c-26.754,3.811-51.866,13.768-76.578,23.873
					c-30.922,12.644-62.087,18.637-94.977,11.397c-38.381-8.448-75.246-1.259-112.048,9.16c-10.391,2.942-20.771,5.985-31.237,8.656
					V2400H1700z"></path>
			</g>
			<g>
				<path style="fill:#4e6947" d="M1700,2400v-420.804c-14.45,1.554-28.868,3.41-43.277,5.378
					c-30.684,4.191-61.424,7.966-92.12,12.072c-39.854,5.331-79.225,13.212-118.533,21.643
					c-50.132,10.753-101.112,18.174-149.201,36.832c-40.767,15.817-80.686,33.867-121.716,48.936
					c-57.13,20.981-114.95,40.087-172.457,60.047c-4.359,1.513-8.692,3.191-12.842,5.193
					c-58.863,28.395-120.421,49.442-182.827,68.579c-30.999,9.506-59.839,24.768-85.916,44.322
					c-19.627,14.717-42.231,22.878-64.471,32.248c-33.394,14.07-66.496,28.872-99.351,44.156
					c-24.111,11.217-48.374,20.033-75.463,21.792c-24.337,1.579-46.576,12.031-69.549,19.606H1700z"></path>
			</g>
			<g>
				<path style="fill:#1e322c" d="M1555.862,2400c-30.744-5.274-61.619-9.766-92.409-14.772
					c-39.407-6.407-78.977-13.57-118.755-14.168c-56.144-0.844-112.14-5.348-168.289-5.154c-9.945,0.034-20.028-0.365-29.819-1.96
					c-39.18-6.386-77.086-17.9-114.826-29.843c-50.898-16.107-99.381-39.51-152.13-50.064c-32.859-6.575-64.9-17.042-98.245-21.225
					c-28.778-3.61-57.308-7.438-84.21-19.481c-55.538-24.862-111.465-48.979-168.766-69.44c-64-22.852-131.548-32.34-197.255-48.845
					c-23.571-5.921-48.033-5.661-71.819-10.039c-38.05-7.004-74.811-19.539-109.609-35.26
					C101.4,2057.916,51.458,2046.933,0,2042.861V2400H1555.862z"></path>
			</g>
		</g>
		<g>
			
				<linearGradient id="SVGID_00000024680271361389492910000012265679900818722986_" gradientUnits="userSpaceOnUse" x1="700.9826" y1="965.3334" x2="700.9826" y2="677.3334">
				<stop offset="0.0209" style="stop-color:#efe0b5"></stop>
				<stop offset="0.4162" style="stop-color:#f8dd9e"></stop>
				<stop offset="0.7488" style="stop-color:#ede6c0"></stop>
				<stop offset="0.9764" style="stop-color:#e5edda"></stop>
			</linearGradient>
			
				<ellipse style="fill:url(#SVGID_00000024680271361389492910000012265679900818722986_)" cx="700.983" cy="821.333" rx="144.34" ry="144"></ellipse>
		</g>
		<g>
			<path style="fill:#4d453a" d="M758.936,813.401c-3.914-1.305-8.115-1.201-12.062-2.454c-2.699-0.857-5.434-1.495-7.994-2.84
				c-1.95-1.025-3.575,0.53-4.94,1.741c-1.716,1.523-3.082,0.716-4.513-0.307c-0.632-0.452-1.187-1.027-1.857-1.405
				c-0.893-0.504-0.994-1.298-0.85-2.105c0.154-0.861,0.939-0.966,1.695-1.077c1.831-0.267,3.725-0.166,5.475-0.937
				c0.76-0.335,0.984-0.783,0.599-1.561c-2.303-4.648-2.627-9.675-2.854-14.731c-0.072-1.604,0.706-3.126,0.296-4.797
				c-0.079-0.322,0.506-1.209,0.622-1.918c0.037-0.228,0.668-0.602,0.767-0.533c0.417,0.287,0.86,0.658,1.07,1.104
				c1.983,4.194,3.983,8.383,5.835,12.635c0.603,1.383,0.916,2.93,1.132,4.434c0.344,2.395,1.768,3.672,4.05,3.188
				c1.587-0.337,2.575,0.557,3.609,1.413c0.219,0.182,0.215,0.632,0.314,0.958c-0.259,0.061-0.522,0.111-0.777,0.186
				c-0.603,0.178-1.458-0.015-1.656,0.815c-0.159,0.667,0.562,0.817,0.974,0.973c2.525,0.957,4.409,2.938,6.767,4.144
				c1.372,0.702,2.612,1.833,4.383,1.382c0.524-0.133,1.113-0.042,1.664,0.019c0.043,0.005,0.155,0.685,0.008,0.868
				C760.269,813.12,759.703,813.491,758.936,813.401z"></path>
			<path style="fill:#4d453a" d="M714.723,884.958c3.347,0.366,6.91-1.079,10.513-2.304c1.65-0.561,3.317-0.589,4.933-0.076
				c1.507,0.479,3.062-0.466,4.488,0.258c0.855,0.434,1.664,1.004,2.39,1.631c0.437,0.377-0.017,0.528-0.382,0.647
				c-1.016,0.329-2.528,0.244-2.792,1.371c-0.258,1.102,1.274,1.172,2.012,1.644c2.816,1.803,3.599,5.063,5.549,7.482
				c1.669,2.071,3.073,4.354,5.036,6.19c0.101,0.094,0.141,0.252,0.209,0.38c-0.08,0.038-0.187,0.13-0.235,0.106
				c-0.689-0.343-1.582,0.261-1.902,0.1c-2.477-1.245-5.436-0.85-7.797-2.637c-2.78-2.104-5.305-4.515-8.118-6.544
				c-1.745-1.259-3.194-2.757-4.696-4.237c-0.531-0.523-0.863-0.155-1.113,0.285c-1.554,2.732-3.488,2.046-6.093,1.506
				c-1.341-0.278-2.588-0.562-3.717-1.431c-1.001-0.771-1.506-1.87-2.058-2.867c-0.372-0.671,0.221-1.518,1.284-1.505
				C712.865,884.964,713.499,884.958,714.723,884.958z"></path>
			<path style="fill:#4d453a" d="M668.2,892.744c-1.291-0.122-2.584-0.227-3.873-0.373c-1.082-0.122-1.928,0.074-2.334,1.249
				c-0.588,1.703-2.042,0.982-3.159,0.98c-2.306-0.005-4.154-0.983-5.325-3.014c-0.528-0.916-0.493-2.007,0.114-2.783
				c0.542-0.694,1.559-0.859,2.459-0.607c1.654,0.462,3.335,0.282,5.007,0.318c0.279,0.006,0.562-0.193,0.844-0.298
				c-0.107-0.242-0.211-0.486-0.32-0.727c-0.682-1.503-1.438-2.978-2.032-4.515c-0.947-2.454-2.392-4.569-4.24-6.399
				c-1.4-1.387-2.136-3.198-3.275-4.746c-0.059-0.08-0.02-0.354,0.014-0.362c0.265-0.061,0.584-0.185,0.805-0.094
				c4.364,1.798,8.906,3.187,13.017,5.573c2.754,1.598,3.47,4.468,4.392,7.171c0.436,1.278,0.981,1.766,2.353,1.2
				c2.046-0.844,4.792-0.199,6.146,1.341c0.226,0.257,0.483,0.841-0.151,0.848c-1.517,0.017-2.296,1.058-3.166,2.01
				C673.524,891.653,671.202,892.949,668.2,892.744z"></path>
			<path style="fill:#4d453a" d="M838.085,823.568c2.171,0.115,4.082-0.542,5.963-1.321c0.702-0.291,0.355-0.642-0.01-0.872
				c-2.375-1.491-3.06-4.018-4.141-6.366c-1.069-2.322-1.096-4.857-0.28-6.864c0.569-1.401,0.127-3.129,1.373-4.277
				c0.172-0.158,0.07-0.657,0.027-0.99c-0.05-0.392-0.375-0.973,0.029-1.11c0.494-0.167,0.744,0.464,0.943,0.865
				c1.208,2.428,2.305,4.914,3.602,7.293c1.857,3.403,4.454,6.263,7.107,9.059c0.525,0.554,1.252,0.762,2.018,0.523
				c1.356-0.423,2.613-0.344,3.756,0.588c0.228,0.186,0.729,0.176,0.623,0.57c-0.06,0.222-0.457,0.369-0.72,0.518
				c-0.538,0.304-1.31,0.433-1.312,1.206c-0.002,0.817,0.836,0.814,1.346,0.945c3.702,0.954,7.154,2.441,10.317,4.589
				c0.139,0.095,0.263,0.211,0.395,0.318c-0.2,0.028-0.401,0.055-0.601,0.085c-2.284,0.344-4.465-0.735-6.615-0.703
				c-3.102,0.046-6.16-0.329-9.241-0.33c-0.801,0-1.535-0.179-2.133-0.664c-2.13-1.726-3.885-0.763-5.525,0.753
				c-2.457,2.272-5.651,2.269-7.876-0.232c-0.62-0.697-1.098-1.809-1.078-2.718C836.082,823.07,837.424,823.821,838.085,823.568z"></path>
			<path style="fill:#4d453a" d="M704.09,851.037c-0.172,1.725-0.162,3.329-1.644,4.409c-0.516,0.376-0.413,0.921,0.186,1.074
				c0.975,0.25,0.904,1.308,1.563,1.797c0.277,0.206-0.069,0.456-0.298,0.538c-1.475,0.533-2.986,0.978-4.43,1.582
				c-2.238,0.937-4.268,0.232-6.303-0.615c-0.541-0.225-1.004-0.196-1.516,0.139c-1.463,0.959-4.506,0.349-5.524-1.062
				c-0.29-0.403-0.298-0.858-0.111-1.26c0.232-0.499,0.747-0.593,1.23-0.478c1.262,0.301,2.43,0.005,3.619-0.388
				c0.799-0.264,0.935-0.73,0.583-1.364c-1.902-3.433-2.831-7.165-3.288-11.009c-0.172-1.449-0.093-2.964,0.546-4.363
				c0.194-0.425,0.479-0.627,0.958-0.614c0.448,0.012,0.834,0.095,0.99,0.563c1.38,4.145,4.659,7.122,6.699,10.86
				c0.206,0.378,0.469,0.81,0.455,1.208c-0.069,2.093,1.092,1.654,2.148,0.989c1.061-0.669,1.977-1.565,2.975-2.337
				c0.304-0.235,0.528-0.813,0.974-0.558C704.108,850.263,704.054,850.828,704.09,851.037z"></path>
			<path style="fill:#4d453a" d="M791.902,809.36c1.256,0.463,2.573-0.186,3.592-0.88c1.233-0.839-0.107-1.976-0.467-2.753
				c-2.05-4.426-3.178-9.019-3.061-13.892c0.018-0.728,0.357-1.454,0.581-2.171c0.122-0.39,0.46-0.475,0.841-0.466
				c0.433,0.01,0.846,0.061,1.01,0.534c1.513,4.382,4.815,7.658,7.166,11.522c0.622,1.022,0.97,2.108,1.131,3.269
				c0.104,0.75,0.327,0.994,1.178,0.7c1.808-0.624,2.98-2.103,4.515-3.082c0.281-0.179,0.562-0.59,0.889-0.312
				c0.205,0.174,0.277,0.618,0.251,0.928c-0.155,1.845-0.328,3.683-2.377,4.584c-0.276,0.121-0.397,0.597-0.589,0.908
				c0.297,0.059,0.595,0.17,0.891,0.168c1.258-0.009,1.751,0.979,1.972,1.856c0.184,0.728-0.851,0.769-1.377,1.006
				c-3.393,1.529-6.801,2.469-10.482,0.736c-1.618-0.761-3.203,0.904-5.004,0.416c-0.99-0.268-1.821-0.639-2.588-1.234
				c-0.4-0.31-0.778-0.726-0.574-1.296c0.215-0.601,0.766-0.561,1.284-0.542C791.032,809.37,791.381,809.36,791.902,809.36z"></path>
			<path style="fill:#4d453a" d="M717.741,852.82c0.612-0.489,2.671,1.146,2.173-1.374c-0.212-1.074-1.258-0.891-2.02-1.031
				c-0.709-0.13-1.771-0.048-1.859-0.77c-0.098-0.807,1.024-0.606,1.582-0.763c2.158-0.609,4.351-1.103,6.541-1.591
				c1.91-0.426,2.988,0.236,2.971,2.337c-0.015,1.801,0.986,2.479,2.712,2.244c0.803-0.109,1.512,0.033,2.005,0.764
				c0.409,0.608,0.538,1.048-0.395,1.305c-0.467,0.129-1.56,0.38-0.707,1.116c2.535,2.188,2.458,5.263,2.965,8.119
				c0.245,1.382,0.126,2.839,0.081,4.258c-0.021,0.665,0.427,1.702-0.494,1.899c-0.821,0.175-1.28-0.859-1.875-1.366
				c-3.029-2.58-4.958-6.086-7.423-9.133c-1.771-2.189-2.516-1.531-3.792,0.122c-0.792,1.026-1.816,1.578-2.938,0.296
				c-0.862-0.985-1.948-1.845-2.56-2.964C713.58,854.23,714.827,852.819,717.741,852.82z"></path>
			<path style="fill:#4d453a" d="M761.372,850.566c-0.019,3.985,0.644,4.695,4.559,4.967c0.775,0.054,1.657,0.33,1.825,1.082
				c0.184,0.827-0.814,0.765-1.341,1.018c-0.348,0.167-0.747,0.281-0.744,0.748c0.002,0.411,0.409,0.408,0.673,0.559
				c1.175,0.673,2.435,0.576,3.704,0.45c0.328-0.033,0.776-0.205,0.877,0.271c0.102,0.484-0.342,0.613-0.711,0.721
				c-1.987,0.586-3.99-0.513-5.934-0.03c-2.389,0.594-4.357-0.771-6.523-1.162c-1.224-0.221-2.081-0.141-2.838,0.825
				c-1.329,1.696-2.876,0.481-4.246,0.164c-1.125-0.26-1.802-1.352-1.74-2.543c0.075-1.451,0.477-2.759,2.476-2.233
				c0.946,0.249,1.913,0.428,2.88,0.58c0.692,0.108,1.133-0.201,0.767-0.918c-1.807-3.539-0.849-7.036,0.064-10.552
				c0.447-1.72,1.072-3.326,2.261-4.694c0.573-0.659,1.264-0.882,2.035-0.7c0.738,0.174,0.476,0.931,0.459,1.378
				C759.744,843.953,761.39,847.137,761.372,850.566z"></path>
			<path style="fill:#4d453a" d="M810.939,879.563c-0.343,1.869,0.593,3.515,0.864,5.277c0.22,1.43,0.466,2.863,0.549,4.304
				c0.124,2.131,1.635,2.551,3.228,2.464c1.135-0.062,1.872,0.367,2.642,0.968c0.381,0.296,0.367,0.584-0.148,0.72
				c-0.213,0.056-0.439,0.063-0.656,0.106c-2.643,0.516-3.139,1.673-1.652,3.802c1.385,1.983,2.159,4.363,3.964,6.078
				c0.104,0.099,0.071,0.343,0.102,0.519c-0.179,0.004-0.367,0.047-0.534,0.006c-4.246-1.039-7.978-2.913-10.617-6.547
				c-0.111-0.152-0.282-0.3-0.308-0.469c-0.452-2.878-1.412-1.245-2.312-0.27c-1.726,1.871-2.42,1.724-4.71-0.773
				c-1.236-1.348-1.576-2.74-0.355-4.193c1.128-1.341,2.334-0.516,3.506,0.066c0.447,0.222,0.941,0.376,1.43,0.475
				c0.444,0.09,0.947,0.011,1.18-0.413c0.217-0.394-0.26-0.583-0.46-0.838c-1.715-2.19-0.492-4.416-0.015-6.589
				c0.412-1.876,1.785-3.313,2.67-4.978c0.328-0.617,0.767-1.541,1.354-1.405C811.325,878.025,810.68,878.99,810.939,879.563z"></path>
			<path style="fill:#4d453a" d="M782.437,852.392c0.229-0.045,0.934-0.098,1.576-0.327c1.428-0.511,2.588-1.158,1.013-2.82
				c-0.715-0.754-0.277-1.847-0.579-2.73c-1.25-3.654-1.4-7.545-2.458-11.241c-0.133-0.466-0.099-0.991-0.071-1.484
				c0.01-0.176,0.2-0.398,0.367-0.487c0.102-0.054,0.374,0.059,0.474,0.177c2.653,3.132,5.332,6.243,7.916,9.431
				c1.062,1.311,0.824,3,0.906,4.57c0.02,0.38-0.02,0.791,0.417,0.976c0.388,0.164,0.68-0.076,0.925-0.323
				c0.911-0.92,2.394-1.064,3.094-2.28c0.055-0.095,0.387-0.155,0.483-0.085c0.834,0.613,1.122,1.55,1.134,2.49
				c0.011,0.808-0.726,0.905-1.404,0.916c-0.667,0.01-1.455,0.18-1.525,0.86c-0.084,0.816,0.714,0.072,1.088,0.344
				c0.556,0.404,1.406,0.65,1.506,1.321c0.105,0.704-0.848,0.42-1.242,0.745c-3.593,2.97-7.526,1.958-11.454,0.957
				c-1.173-0.299-2.163,0.065-3.127,0.718c-0.424,0.287-0.9,0.843-1.506,0.255c-0.317-0.308-0.712-0.623-0.526-1.128
				c0.245-0.664,0.89-0.75,1.481-0.844C781.265,852.348,781.62,852.392,782.437,852.392z"></path>
		</g>
	</g>
</g>
</svg>
